<svg xmlns="http://www.w3.org/2000/svg" width="16" height="16" viewBox="0 0 16 16">
  <g id="account-edit" transform="translate(-222 -343)">
    <rect id="bg" width="16" height="16" transform="translate(222 343)" fill="none"/>
    <path id="img" d="M17.877,11.33l-.784.784-1.607-1.607.784-.784a.431.431,0,0,1,.6,0l1,1a.431.431,0,0,1,0,.6m-7.6,4.382,4.751-4.751,1.607,1.607-4.743,4.759H10.272V15.713m0-3.873C6.807,11.84,4,13.243,4,14.976v1.568H8.7V15.062l3.136-3.136a13.048,13.048,0,0,0-1.568-.086m0-7.84a3.136,3.136,0,1,0,3.136,3.136A3.136,3.136,0,0,0,10.272,4Z" transform="translate(219 340)" fill="#fff"/>
  </g>
</svg>
