<svg xmlns="http://www.w3.org/2000/svg" width="16" height="16" viewBox="0 0 16 16">
  <g id="flask-empty-plus" transform="translate(-222 -343)">
    <rect id="bg" width="16" height="16" transform="translate(222 343)" fill="none"/>
    <path id="img" d="M13.5,10.4h1.4v2.1H17v1.4H14.9V16H13.5V13.9H11.4V12.5h2.1V10.4M5.1,16A2.1,2.1,0,0,1,3,13.9a2.056,2.056,0,0,1,.35-1.148L7.2,6.067V4.8a.7.7,0,0,1-.7-.7V3.4A1.4,1.4,0,0,1,7.9,2h2.8a1.4,1.4,0,0,1,1.4,1.4v.7a.7.7,0,0,1-.7.7V6.067l1.75,3.059A4.2,4.2,0,0,0,11.071,16Z" transform="translate(220 342)" fill="#fff"/>
  </g>
</svg>
