<svg xmlns="http://www.w3.org/2000/svg" viewBox="0 0 1333.34 1047.84" shape-rendering="geometricPrecision" text-rendering="geometricPrecision" image-rendering="optimizeQuality" fill-rule="evenodd" clip-rule="evenodd"><path d="M60.06 167.62h1065.77c16.58 0 31.37 6.72 42.13 17.48 10.75 10.75 17.48 25.99 17.48 42.13v761.01c0 16.59-6.72 31.37-17.48 42.13-.9.89-1.8 1.79-3.14 2.69-10.31 9.41-24.2 14.79-39.44 14.79H59.61c-16.58 0-31.37-6.72-42.13-17.48C6.72 1019.61 0 1004.37 0 988.24V227.23c0-16.58 6.72-31.37 17.48-42.13 10.76-10.76 26-17.48 42.13-17.48h.45zm246.13 206.61c47.24 0 85.53 38.29 85.53 85.53s-38.29 85.53-85.53 85.53-85.53-38.28-85.53-85.53c0-47.24 38.29-85.53 85.53-85.53zm359.93 367.06l171.06-295.77 181.74 459.67-848.15-.01v-57.02l71.29-3.54 71.26-174.63 35.61 124.74h106.94l92.63-238.75 117.61 185.3zM237.55 70.81c-19.72 0-35.41-16.13-35.41-35.41 0-19.72 16.14-35.41 35.41-35.41h1060.39c19.72 0 35.41 16.13 35.41 35.41v747.56c0 19.72-16.14 35.41-35.41 35.41-19.72 0-35.41-16.13-35.41-35.41V71.25H237.55v-.45zm877.08 167.62H71.27v738.15h1043.36V238.43z" fill-rule="nonzero"/></svg>